<svg xmlns="http://www.w3.org/2000/svg" viewBox="0 0 927.81 1294.15"><defs><style>.cls-1{fill:#c4b4a9;}.cls-2{fill:#e2c9b6;}.cls-3{fill:#fcead9;}.cls-4{fill:#f8e8ee;}.cls-20,.cls-5{fill:#f4ccdd;}.cls-6{fill:#dc6b8a;opacity:0.7;}.cls-7{fill:#dfc8b5;opacity:0.4;}.cls-8{fill:#f7f2ee;}.cls-9{fill:#e25083;}.cls-10{fill:#702734;}.cls-11{fill:#f3d7e3;}.cls-12,.cls-19{fill:none;stroke:#4a090c;stroke-linecap:round;}.cls-12,.cls-19,.cls-20{stroke-miterlimit:10;}.cls-12{stroke-width:65px;}.cls-13{fill:#c9517e;}.cls-14{fill:#f7e3d2;}.cls-15{fill:#ebe4df;}.cls-16{fill:#932d4c;}.cls-17{fill:#470f15;}.cls-18{fill:#fcebed;}.cls-19{stroke-width:38px;}.cls-20{stroke:#ca638e;}</style></defs><title>アセット 7</title><g id="レイヤー_2" data-name="レイヤー 2"><g id="レイヤー_6" data-name="レイヤー 6"><g id="レイヤー_2-2" data-name="レイヤー 2"><path class="cls-1" d="M256.63,361.39,248,409.58q-1.51,8.43-2.51,16.93l-4.06,34.31L237,496.57c-.37,3-.89,6-1.54,9l-7.18,32.64-12.24,47.48-13.19,52.09q-.9,3.54-2,7l-16.3,50.3L165.26,750.7l-18.17,51.56L133.65,836.5c-1.43,3.62-3,7.18-4.82,10.65l-17.72,34.48L94.79,909.82l-9.93,17.3q-3,5.32-6.52,10.38l-6.89,10Q68.83,951.36,66,955l-9.13,11.7c-1.66,2.13-3.38,4.2-5.16,6.23l-11,12.54-7.54,9.14a85.14,85.14,0,0,0-8.35,12.11l-3.64,6.4a121.88,121.88,0,0,0-6.21,12.55l-2.14,5A155.74,155.74,0,0,0,5,1053.62l-.75,2.93A137.61,137.61,0,0,0,1,1074.1l-.16,1.36A119,119,0,0,0,0,1092.12l.09,4.26c.06,2.72.21,5.43.43,8.13L.76,1107a124.62,124.62,0,0,0,1.87,13.45h0a55.1,55.1,0,0,0,4.17,12.84l1,2.09q1.35,2.86,3,5.6h0a92.12,92.12,0,0,0,8.88,12.37h0a17.05,17.05,0,0,0,3.06,2.82l12.76,9.16h0a102,102,0,0,1-19.33-31.77h0a9.38,9.38,0,0,1-.48-1.78l-.28-1.77a139.06,139.06,0,0,1-1.79-22.23v-2.89q0-6.32.54-12.61l.36-4.17a120,120,0,0,1,3.92-21.75l2.09-7.51a160.26,160.26,0,0,1,5.63-16.68h0A136.27,136.27,0,0,1,36,1022.29l2.65-4.38q3.45-5.73,7.4-11.13h0a68.87,68.87,0,0,1,6.82-8L57,994.75l-1.89,7.55a209.26,209.26,0,0,0-4.87,26.75l-.66,5.66c-.49,4.26-.85,8.55-1.07,12.84l-.8,15.85q-.35,7-.24,14l.11,7q.15,9,1.17,17.91l.51,4.45c.71,6.16,1.73,12.29,3.05,18.35l.76,3.47a156,156,0,0,0,4.2,15.45l.7,2.14a128.3,128.3,0,0,0,8.76,20.51l3.25,6.08.78,1.37A145.82,145.82,0,0,0,87,1197.26h0A27.06,27.06,0,0,0,98.31,1206l10.2,4.22-1.5-1.32a72.3,72.3,0,0,1-16.67-21.31h0L88,1181.72A132.91,132.91,0,0,1,82.64,1165l-1.36-5.42c-.63-2.55-1.18-5.12-1.62-7.71h0A74.62,74.62,0,0,1,78.57,1138l.27-20.48,3.79,13.81a146.28,146.28,0,0,0,6.21,18l1.2,2.86c1.93,4.59,4,9.11,6.35,13.52l.72,1.38a143.67,143.67,0,0,0,11.63,18.7h0a23.64,23.64,0,0,0,3.72,4l19.42,16.75,107.39-187.12,330.62-87.33L719.6,1047.93l-7.19,133.14h0a83.85,83.85,0,0,1-11.53,20.19l-6.53,8.46,15.57-13.7,24.29-22.11-5.92,41.42-5.48,20.55a123.78,123.78,0,0,1-4.91,14.63l-1.84,4.51a109.18,109.18,0,0,1-4.69,10l-.84,1.58q-2.16,4.1-4.69,8l-4.33,6.7,2.82-1.52a166.33,166.33,0,0,0,19.09-12L737,1258l65.39-52.31,10.89-12.76,8.3-10.12a124.71,124.71,0,0,0,8.3-11.37l2.19-3.41a92.94,92.94,0,0,0,6.43-11.7l.53-1.17c1.31-2.84,2.49-5.75,3.53-8.7h0a111.15,111.15,0,0,0,3.61-12.52h0q.75-3.29,1.24-6.62l2-13.48.41,6a123.23,123.23,0,0,1-.79,24.59l-.86,6.43-.28,3.23a115.57,115.57,0,0,1-4,21.81l-.67,2.36-.75,2.25a66.27,66.27,0,0,1-6.25,13.48h0a8.55,8.55,0,0,1-1.11,1.43l-4.46,4.64q-3,3.11-6.29,5.92l-7.3,6.22,9.34-4.82a89.33,89.33,0,0,0,17.31-11.69h0a30.06,30.06,0,0,0,5.58-6.38l3.08-4.71a113.27,113.27,0,0,0,8-14.5l4.14-8.91c1.55-3.35,3-6.78,4.22-10.25l1.65-4.56a136.06,136.06,0,0,0,6.29-24l1.69-10.13,2.8-29.89.93-16.84a115.72,115.72,0,0,0,0-11.78l-.37-7.84a109.56,109.56,0,0,0-1.2-11.71l-1.24-7.8q-.65-4.13-1.61-8.18l-2.15-9-3.74-13.39,3.62,3.84a100.15,100.15,0,0,1,11.34,14.54h0a84.33,84.33,0,0,1,5,9l4.5,9.3q2,4.11,3.7,8.33l4.23,10.42c1,2.49,1.93,5,2.75,7.56l1.55,4.82a104.57,104.57,0,0,1,3.76,16l1.56,10.21.91,8q.65,5.65.78,11.36h0a103.3,103.3,0,0,1-.69,14.71h0a33.17,33.17,0,0,1-1.39,6.38l-.29.91a121.38,121.38,0,0,1-5,12.82h0a75.73,75.73,0,0,1-4.08,7.78l-7.08,11.8,8.58-8.4A87.47,87.47,0,0,0,917,1141.62h0a75,75,0,0,0,6-10.63h0a41.38,41.38,0,0,0,3.49-12.48l.28-2.4a142.34,142.34,0,0,0,.93-14.6l.14-10.19a114.32,114.32,0,0,0-.5-12.27l-.66-6.94a123.71,123.71,0,0,0-3.48-19.67l-.24-.94a134.42,134.42,0,0,0-6.41-18.74l-2-4.63a148.56,148.56,0,0,0-7.12-14.43l-3.42-6a119.66,119.66,0,0,0-7.76-12l-9.46-12.9-15.26-18.68-12.45-18.37L841.94,918l-21.19-34.75q-2.16-3.56-4.08-7.24l-13.21-25.31q-3.56-6.81-6.44-13.93l-17.66-43.63-20.24-57.92L732,652.68l-20.55-70.06-11-44.1a146.31,146.31,0,0,1-3.2-17.23l-6.39-51.7-9.66-72.23-6.22-52.63-4.6-27.3q-.39-2.28-.9-4.53l-2.89-12.76a117.66,117.66,0,0,0-5-16.32l-2.32-6q-1.46-3.75-3.15-7.4L636.44,228l-90-43.59L365.86,193.1l-55.12,93.72Z"/><path class="cls-1" d="M688.93,256.17l17.26,15.42L724.55,289l14.69,15,10.91,11.67a91.57,91.57,0,0,1,6,7.08l10.41,13.69,10,13.86q2.61,3.63,4.92,7.49l7.72,12.94q2.46,4.14,4.52,8.49l4.55,9.6,7.22,16.52,2.54,6.42a108,108,0,0,1,4.79,15.43h0a46.89,46.89,0,0,1,1,6.56l1.35,15.56c.13,1.53.21,3.07.23,4.6l.21,12.75.31,15.37c0,1.83,0,3.66,0,5.49l-.44,10.65A37.35,37.35,0,0,1,814,507h0a8.65,8.65,0,0,1-2.75,4.26h0a16.25,16.25,0,0,1-4.17,2.56h0A27.64,27.64,0,0,1,796.78,516h0a35.52,35.52,0,0,1-5.15-.31h0A43.36,43.36,0,0,1,781,512.78h0a4.83,4.83,0,0,1-.92-.5L772.28,507l3.28,4.6a60.12,60.12,0,0,0,6.89,8.05h0a15.29,15.29,0,0,0,3.24,2.42h0A27.24,27.24,0,0,0,795,525.2l.93.15a39.66,39.66,0,0,0,6,.45h0a16.65,16.65,0,0,0,4.91-.74h0a28.38,28.38,0,0,0,8.63-4.43h0a36.81,36.81,0,0,0,5.56-5.17l4-4.62a93.48,93.48,0,0,0,6.69-8.67l5.77-8.49a78,78,0,0,0,6.33-11.2l1.35-2.9c.73-1.58,1.4-3.19,2-4.81l3.44-9q1-2.7,1.8-5.51l.94-3.43a70.78,70.78,0,0,0,2.36-13.47h0a43,43,0,0,0-.19-8.56l-1.8-14.82,2.71,6.13c.39.89.76,1.79,1.1,2.7h0a44.16,44.16,0,0,1,2.57,10.56l.47,4.11.61,9.67.12,11.13,1.4-2.78a94.43,94.43,0,0,0,6.41-16.58l.2-.72a102.7,102.7,0,0,0,3-14.64h0a71.64,71.64,0,0,0,.55-11.62v-.24a97.64,97.64,0,0,0-1.73-15.14l-.21-1.07A88.35,88.35,0,0,0,866,385l-2.74-6.74q-1.49-3.66-3.32-7.16l-3.53-6.77a73.38,73.38,0,0,0-7.82-12l-6.26-7.81a78.65,78.65,0,0,0-10-10.43l-8.82-7.61-18.6-14.44-22.4-17.26-25-20.68L731.4,253,703,230Z"/><path class="cls-1" d="M214.61,245,196,258.45,180.36,270.6q-3.84,3-7.49,6.2l-15.53,13.68q-3.1,2.73-6.44,5.18L135.44,307l-17.8,14.47-15,13.31-6.45,5.62a121.33,121.33,0,0,0-12.17,12.25l-2.11,2.45a95.22,95.22,0,0,0-6.61,8.63l-5.42,8-3.76,5.83a71.45,71.45,0,0,0-7.56,15.55h0Q57.93,395,57.45,397h0a207.41,207.41,0,0,0-4.14,22.25h0a69.65,69.65,0,0,0-.59,8.16h0a62.13,62.13,0,0,0,1.42,14.26l.63,2.93,1.7,7a30,30,0,0,0,1.19,3.81h0a72.1,72.1,0,0,0,7,13.49l1.28,1.94.17-14.63V450a79,79,0,0,1,2.06-17.93h0a42.16,42.16,0,0,1,2-6.43L72.9,419l-.75,12a117.67,117.67,0,0,0-.08,13.28l.33,6.5.18,4a68.15,68.15,0,0,0,2.11,14.06h0a31.77,31.77,0,0,0,1.35,4l3.06,7.39q2.12,5.12,4.59,10.05L86,494.87a128.68,128.68,0,0,0,7.5,13l1.81,2.75a122.5,122.5,0,0,0,10,13.16h0a27.23,27.23,0,0,0,8,6.3h0a32.13,32.13,0,0,0,5,2.1h0a31.09,31.09,0,0,0,10.4,1.54h0a14.76,14.76,0,0,0,3.89-.62l.25-.07a40.17,40.17,0,0,0,8.57-3.71h0a30.17,30.17,0,0,0,6.2-4.76h0a36,36,0,0,0,3.71-4.37l3.31-4.65-.17.08a69.49,69.49,0,0,1-16,5.54h0a21.79,21.79,0,0,1-5,.49l-3.31-.05q-4.13-.07-8.22-.54h0a9.76,9.76,0,0,1-7-4.38h0a13.53,13.53,0,0,1-2-5h0A116.83,116.83,0,0,1,111,493l-.15-8.06.11-22.62a97.61,97.61,0,0,1,2.56-21.67l1.32-5.63a117.28,117.28,0,0,1,4.21-14l3.44-9.27,1.76-5.13a119.83,119.83,0,0,1,7-16.49l6.49-12.49q2.83-5.47,6.17-10.67l7.35-11.45q3.28-5.15,7-10l8.35-11.11q2.11-2.79,4.37-5.48l16.54-19.61L202.88,293q3.9-4.14,8.12-8l32.71-29.92Z"/><path class="cls-2" d="M421.13,589.75l1.5,25.44,2.16,29.1.54,15.77c.07,2.13.07,4.27,0,6.4L425,674.9h0a47.9,47.9,0,0,1-11.3,21.6l-9.4,10.3L411,749.49l26.73,26.08,34.28,4.1,56.69-51.74L526.28,722a162.25,162.25,0,0,1-6.16-18.24l-2-7.29-3.66-12.94V648.05c0-3.51.12-7,.36-10.53l3.52-51.44Z"/><path class="cls-3" d="M325.07,543.28,338,551.56l4.18,1.72a29.14,29.14,0,0,0,4.24,1.38h0q3.17.75,6.38,1.25l1.57.25,6.25,6.55c.89.93,1.81,1.83,2.74,2.71l2.22,2.07a88.61,88.61,0,0,0,10.16,8.17l.75.52a88.22,88.22,0,0,0,9.29,5.58l10.49,5.44c1.64.86,3.31,1.65,5,2.39l9.43,4.13,13.92,6.75L441,608l6,3a91.21,91.21,0,0,0,10.47,4.39h0c.37.13.75.25,1.12.34l3.19.82a14.41,14.41,0,0,0,2.16.4l1,.11a48.38,48.38,0,0,0,5.52.32h0a17.91,17.91,0,0,0,4.31-.53h0a56.7,56.7,0,0,0,5.56-1.72l1.63-.6q2.38-.87,4.71-1.89l16.55-7.31q3.3-1.46,6.46-3.19l17.64-9.69,22.17-13.23,2.63-1.43a80.11,80.11,0,0,0,14.32-10h0l4.76-5.35A77.34,77.34,0,0,0,577,555.2l5.61-8,3.58-5.37,7.54-4.13q2.52-1.38,4.93-2.93l29.68-19.11L623.12,327.1,526.39,193.52l-151.09-23-66.8,93-26.71,76,5.52,103.18L294.68,510Z"/><path class="cls-4" d="M606.34,188.27l29.09-45,8-13.53c1.11-1.87,2.13-3.78,3.08-5.74l.31-.63a69.76,69.76,0,0,0,4-10.2l1-3.41a63.64,63.64,0,0,0,1.74-7.34l.75-4.3a9.57,9.57,0,0,0,0-3.16h0a14.77,14.77,0,0,0-1.87-5.23h0a32.18,32.18,0,0,0-6-7.38L641.77,78l-6.64-6.29A79.81,79.81,0,0,0,629,66.46l-8.32-6.4a65.67,65.67,0,0,0-6.47-4.39l-12-7.1L570.37,31.3c-1.12-.61-2.25-1.18-3.4-1.72L541.88,17.77c-1.21-.57-2.43-1.1-3.66-1.6L517.48,7.8A68.19,68.19,0,0,0,510,5.26l-7.75-2.13A70.89,70.89,0,0,0,490.85,1L484.56.32a60.92,60.92,0,0,0-7.87-.3L466.2.32c-2.16.07-4.33.22-6.48.48L445.78,2.44,425.18,6c-1.42.24-2.84.52-4.24.85l-24.67,5.74-20.81,5.27a71.89,71.89,0,0,0-10,3.32l-14.65,6.06-12,4.81q-4,1.59-7.74,3.56l-6.78,3.55q-3.92,2.05-7.62,4.49l-2.56,1.69a105,105,0,0,0-13.26,10.32l-2.74,2.51q-3,2.75-5.73,5.75L285,72l-7.64,8.63c-1.87,2.1-3.64,4.29-5.31,6.55l-3.72,5-3.5,4.43a27.54,27.54,0,0,0-2.73,4.18h0a25.48,25.48,0,0,0-2.28,6h0a31.2,31.2,0,0,0-.85,6.3h0a16.86,16.86,0,0,0,.34,4h0a37.42,37.42,0,0,0,2.27,7.25h0a37.76,37.76,0,0,0,2.36,4.61l6.24,10.4,8.59,13.3,8.92,12.47,23.24,30.47,198.36-47.31Z"/><path class="cls-5" d="M311.22,189.66h0a94.86,94.86,0,0,0-8.59-15.82h0a10.42,10.42,0,0,0-2.38-2.49l-1.46-1.1a68.57,68.57,0,0,0-9.77-6.11h0a26.83,26.83,0,0,0-5.32-2h0A41.79,41.79,0,0,0,272,160.66l-4.23.09h-6.44a77.62,77.62,0,0,0-7.3-14.22l-2.17-3.34q-2-3-4.14-5.92L239.26,126l-3.41-4.53a122.93,122.93,0,0,0-16.6-18h0a69,69,0,0,0-7.82-6h0a106.31,106.31,0,0,0-21.26-10.87h0c-2.07-.78-4.17-1.49-6.28-2.14L172.23,81q-5.74-1.74-11.65-3l-11.14-2.35c-1.12-.24-2.23-.51-3.33-.83l-7.68-2.23a47.4,47.4,0,0,0-7.25-1.51l-.72-.09a6.43,6.43,0,0,0-3.87.7h0a5.82,5.82,0,0,0-2.54,2.65h0a9.25,9.25,0,0,0-.77,5.48h0a13.57,13.57,0,0,0,2.66,6.09l1.58,2c.88,1.13,1.78,2.23,2.73,3.3l12.31,14,9.68,10.47A148.79,148.79,0,0,0,170,132l7.53,5.87,10,8a170,170,0,0,0,22.85,15.42l.35.2q7.56,4.24,15.51,7.75l12.85,5.65-8.73,6.86-11.86,8.74-.83-.15a116.78,116.78,0,0,0-30.56-1.48h0a17.69,17.69,0,0,0-4.08.82l-14.1,4.61q-4.29,1.4-8.7,2.37l-27.61,6.1-13.73,2.9a81.46,81.46,0,0,0-9.81,2.72L92.31,214.2q-3,1-5.87,2.35l-14,6.38-7.63,3.82a9.48,9.48,0,0,0-2,1.36l-.32.27a9,9,0,0,0-2.65,4h0a3.35,3.35,0,0,0,.24,2.68h0a20.15,20.15,0,0,0,4,5.1h0a22.61,22.61,0,0,0,6.77,4.31l.28.11a73.33,73.33,0,0,0,12.62,3.88L94.9,250.8q2.94.62,5.93,1l11.5,1.4a78.33,78.33,0,0,0,12.25.51l7.54-.28A78.74,78.74,0,0,0,149,250.92l3.73-1a79.36,79.36,0,0,0,13.76-5l10.19-4.78,11.18-5.83c1.84-1,3.63-2,5.38-3.12l11.1-7.06-.57,4a65.2,65.2,0,0,0-.39,15.29h0a41.39,41.39,0,0,0,1.34,7.42l.39,1.42a41.39,41.39,0,0,0,4.48,10.46h0a37.29,37.29,0,0,0,8.19,9.55h0a42.54,42.54,0,0,0,7.8,5.13h0a54.28,54.28,0,0,0,14.38,4.93h0a72.36,72.36,0,0,0,17.51,1.2h0a55,55,0,0,0,5.6-.58L276.49,281Z"/><path class="cls-5" d="M603.7,180l2.48-5.17A73.29,73.29,0,0,1,614,162l.15-.21a32.26,32.26,0,0,1,8.8-7.95l.23-.14a44.4,44.4,0,0,1,4.18-2.27l.87-.41a75.77,75.77,0,0,1,13.54-4.9h0a20.62,20.62,0,0,1,4.69-.64l8.6-.19,3-4.94q3.68-6,7.93-11.7l11.75-15.6,5.34-7.39a63.64,63.64,0,0,1,6.1-7.22l6.54-6.67q2.56-2.6,5.34-5l2.07-1.75a80.75,80.75,0,0,1,17-11.1h0a76.58,76.58,0,0,1,14.59-5.34l15.84-4,21.49-5,11.24-2.24a14.49,14.49,0,0,1,3.83-.27l4.44.26a6.06,6.06,0,0,1,3.17,1.13h0a3.76,3.76,0,0,1,1.47,2.36h0a10.05,10.05,0,0,1-.41,5.07h0a17.82,17.82,0,0,1-3.08,5.47l-4.17,5A81.45,81.45,0,0,1,782.44,83L771.33,93.81c-1.26,1.22-2.48,2.49-3.66,3.79l-10.78,11.86q-1.54,1.71-3.22,3.28l-10.5,9.8q-2.38,2.23-5,4.25l-8.46,6.56a58.1,58.1,0,0,1-5.85,4l-13.67,8.21-18.63,10L678,162l5.41,2.7a73,73,0,0,1,9.74,5.87h0c1.36,1,2.68,2,3.94,3.11l3.84,3.36,6.26-1a69.82,69.82,0,0,1,11.91-.84h1.12a72.81,72.81,0,0,1,19.29,2.88l7,2,17.91,4.54,23.41,4.77,16.47,4.17c1.59.41,3.18.86,4.74,1.38L822,199.29l11.43,4c1.13.39,2.26.82,3.37,1.29l6.65,2.81a40.46,40.46,0,0,1,4.7,2.36l3.36,2a13.43,13.43,0,0,1,2.39,1.79l2,1.9a6.24,6.24,0,0,1,1.83,3.31l0,.07a6.06,6.06,0,0,1-1.21,5h0a7.1,7.1,0,0,1-2.74,2.08l-4.18,1.77q-2.07.88-4.2,1.59l-8.28,2.76a54.24,54.24,0,0,1-6.51,1.72L820,235.71a74.81,74.81,0,0,1-8.57,1.18l-9.44.76q-4.15.33-8.32.28l-8.43-.12a81.52,81.52,0,0,1-10.58-.82l-1.68-.24a81.08,81.08,0,0,1-22-6.39l-5.91-2.67a55.9,55.9,0,0,1-6.08-3.2l-6.74-4.1c-1.67-1-3.36-2-5.09-2.85l-2.4-1.23a61.76,61.76,0,0,1-6.5-3.86L714,209.56l.52,6.45c.13,1.59.21,3.19.24,4.78l0,.8a56.37,56.37,0,0,1-2.45,17.59h0l-1.26,2.91a45.74,45.74,0,0,1-9,13.56h0l-1,.64a72,72,0,0,1-16.75,8h0a36.18,36.18,0,0,1-5.73,1.36l-2.17.33a79.81,79.81,0,0,1-15.21.82h0a62,62,0,0,1-7.58-.79l-33.26-5.58Z"/><line class="cls-5" x1="255.12" y1="199.57" x2="213.57" y2="256.77"/><line class="cls-5" x1="268.71" y1="219.32" x2="205.62" y2="242.4"/><line class="cls-5" x1="664.56" y1="186.55" x2="703.06" y2="243.46"/><line class="cls-5" x1="648.82" y1="204.63" x2="710.42" y2="226.72"/><path class="cls-1" d="M432,416.51l-4-5.57q-2.57-3.6-4.8-7.42l-1-1.66a114.78,114.78,0,0,1-9.71-21.46l-1.65-4.95c-.76-2.3-1.44-4.64-2-7l-1.54-6.13A112.32,112.32,0,0,1,405,350.11l-1.8-13.47L401,318.27c-.3-2.59-.52-5.19-.64-7.8l-.59-12.63c-.17-3.44-.18-6.89-.06-10.33l.55-15.19q.15-4.23.58-8.44l2.89-27.9-5.36,17.13q-1.5,4.8-2.67,9.69l-4.37,18.36-3.77,16.48q-1.55,6.76-2.42,13.66l-1.78,14.15-2.88,21L378,363.1,377,373.56q-.46,4.6-.66,9.22l-.47,11.77.22,22.59h0a96.11,96.11,0,0,1-11.45-23.27h0a36,36,0,0,1-1.18-4.48l-1.76-8.87a90.23,90.23,0,0,1-1.7-18.18l.14-17.18.45-23.69,2-33-6.2,26.13-4.87,24.14-5.1,32.11-2.43,20.82-2,19.27-1.77,30.11-2.81-9.71q-1.62-5.56-2.68-11.27l-2.19-11.75q-1-5.13-1.41-10.34l-1.13-12.85a135.87,135.87,0,0,1-.5-14.41L330.2,329l-6.65,34.54-4.43,31-3.32,22.81L313.85,433q-.71,5.64-1.06,11.32L312,456.56l3,16.82c.69,3.85,1.49,7.69,2.42,11.49l5.47,22.53q1.48,6.15,3.45,12.17l3,9.12c1.13,3.5,2.37,7,3.69,10.4l3.26,8.43a172.84,172.84,0,0,0,10.17,21.76l5.46,9.86,8.37,14.53a197.24,197.24,0,0,0,12.34,18.87l5.09,6.89,8.35,11.05h0A81.37,81.37,0,0,1,365,626.2l-3.27-1.13,3.7,4.14q4.65,5.19,9.7,10l.35.34-3.7-1.27a106.32,106.32,0,0,1-26.55-13.5h0a34.54,34.54,0,0,1-4.52-3.76l-13.37-13.16,4.64,10.4a58,58,0,0,0,6.07,10.49l1.59,2.18a105.1,105.1,0,0,0,7.34,9l3.94,4.32h0A64.37,64.37,0,0,1,332,632h0a28,28,0,0,1-3.88-4.46l-6.47-9.26q-2.62-3.78-5.05-7.7l-1.64-2.66a182,182,0,0,1-9.18-16.79l-4.7-9.79.5,5.93a105.58,105.58,0,0,0,1.61,11.63l.19.94c.43,2.24.94,4.47,1.5,6.68l.1.39a135,135,0,0,0,4.21,13.49h0a102.93,102.93,0,0,1-10.86-20.9l-1.26-3.31q-1.64-4.29-3-8.66l-3.15-10.09A173.18,173.18,0,0,1,286.21,559l-.74-3.76a200.31,200.31,0,0,1-3-21.56l-1.79-21.56-2-25.55L276.16,481a207.63,207.63,0,0,1-10.85-29.4h0q-1.67-5.81-2.83-11.74l-2.91-14.72-.27,16-2-8.62c-.65-2.77-1.22-5.54-1.72-8.33L254,415.69q-1-5.54-1.55-11.14l-1.28-12.8q-.87-8.76-.88-17.59V363.84a131.93,131.93,0,0,1,1.12-17.08l1.12-8.47q.48-3.68,1.22-7.3l3-14.62A168.52,168.52,0,0,1,261,299.83l7-22.27,7.88-21.46,4.69-13.49a186.91,186.91,0,0,1,10.23-23.93L296,208.55l4.27-7.44a163.44,163.44,0,0,1,11.6-17.52h0a165.54,165.54,0,0,1,12-14.07L334,158.83l14.79-13.3a169.1,169.1,0,0,1,13.94-11.24l4.94-3.56a150.51,150.51,0,0,1,19.41-11.89l3.73-1.91a144.16,144.16,0,0,1,15-6.63h0a61.9,61.9,0,0,1,20.05-3.92h0a113.58,113.58,0,0,1,19.41,1.15h0a16.08,16.08,0,0,1,2.89.72l7,2.49,6,2.26a12.88,12.88,0,0,0,4,.81l3.07.11a16,16,0,0,0,3.85-.31l3.38-.7a52.75,52.75,0,0,0,5.12-1.34h0a75.57,75.57,0,0,1,17.63-3.36h0a25.59,25.59,0,0,1,5.32.18h0a82.68,82.68,0,0,1,17.57,4.47h0a56.14,56.14,0,0,1,8.65,4.11l7,4.09,14.88,9.16a127.7,127.7,0,0,1,12.13,8.47l13.47,10.63,9.47,7.14A99.71,99.71,0,0,1,598,166.4l1.87,1.92a123.42,123.42,0,0,1,8.55,9.73l5.09,6.47a114.65,114.65,0,0,1,9.11,13.38l3.52,6,5.46,9.51q3,5.16,5.45,10.58l5.39,11.7,2.6,5.95a124.7,124.7,0,0,1,6.39,18.49l1.46,5.61c.82,3.15,1.54,6.33,2.14,9.53l3.44,18.29L662,313.43l1.32,8.66A161.42,161.42,0,0,1,665,340.72l.51,15.36,1.2,23.72a160,160,0,0,1,0,16.68l-.74,13.42-1.36,15.82-1.26,9.58a89.93,89.93,0,0,1-2.94,13.88h0a68.84,68.84,0,0,1-3.85,10l-3.41,7.14,1.37,28.36.82,24v30A83.24,83.24,0,0,1,654,563.37l-.91,5.1q-.51,2.88-1.24,5.72l-1,4c-.46,1.77-1,3.53-1.55,5.26l-2.14,6.4-.27-22.09-1.36-22.91-3.69,12.7c-.81,2.8-1.75,5.57-2.81,8.29l-5.5,14.19-3.89,10.36a90.76,90.76,0,0,1-4.23,9.58l-1.73,3.38q-1.61,3.14-3.46,6.13l-4.07,6.57q-1.17,1.89-2.47,3.69l-3.21,4.45q-2.58,3.57-5.44,6.92h0a119.68,119.68,0,0,1-10.82,11.13l-5.41,4.88,6.55-12.27,6.54-13.64,6.28-13.09-9.52,8.21c-1.65,1.44-3.36,2.82-5.1,4.14l-4.09,3.11a83.08,83.08,0,0,1-17.26,10.08h0a22,22,0,0,1-5.74,1.59l-7.11,1,3.7-1.9A52,52,0,0,0,573.74,627h0l-2.11.7a81.87,81.87,0,0,1-19.16,3.93h0l16.91-28.09L584.46,576a92.23,92.23,0,0,0,4.26-8.92l8.74-21.1a100.5,100.5,0,0,0,4.14-12.19l4.87-18,5.67-22.48a100.66,100.66,0,0,0,2.46-13.58l1.82-16.44c.28-2.45.46-4.92.55-7.38l.14-3.39-3.55,7.63.37-14.55a85.47,85.47,0,0,0-.69-13.38l-1.86-14.34-5.46-31.91-5.18-33.82-.27,34.1-.27,19.09-.65,11.55a103.09,103.09,0,0,1-2.06,15.46l-1,4.65c-.45,2.16-1,4.31-1.57,6.43l-3.47,12.36L591,417.61c0-2.78-.19-5.54-.47-8.3L588.87,393c-.27-2.7-.64-5.38-1.13-8.05l-3.36-18.36-6-25.36-4.64-24-4.63-20.46L571.26,326q.3,4,.35,8.06l.19,16.15c0,2,0,4-.1,6l-.16,3.47a129.72,129.72,0,0,1-3,22.27l-1.63,7.26-1.86,9.33q-.87,4.31-2,8.55l-2.91,10.49-4.64-39.82-2.91-27.19c-.24-2.24-.55-4.46-.92-6.68l-3-18-6-28.09-5.18-21.27-5.34-24.25q-1.2-5.47-2.93-10.81l-1-3.12,1.49,21.88a114.56,114.56,0,0,1,.17,12.43l-.61,15.62q-.24,6-1.06,11.9l-3.26,23.26-5.46,30.27-2.89,14a117.39,117.39,0,0,1-3,11.56l-1.88,6a115.38,115.38,0,0,1-5.63,14.46h0A111,111,0,0,1,500,411l-6.74,10.93,2.73-27,2.72-32.18-4.46,16q-1.53,5.5-2.54,11.14l-1.28,7.23c-.48,2.7-1,5.37-1.69,8l-2.57,10.47-17.76-1c-.89-.05-1.78-.07-2.67-.07h-1.93l-1.37-22.91-1.63,24.27-8.73-.54h0a29.89,29.89,0,0,1-7-7.19h0a52.08,52.08,0,0,1-5.92-11.46l-2-5.37c-1-2.71-1.9-5.47-2.7-8.25l-5.08-17.64,3.2,20.75q.61,4.07,1.53,8.08l2.36,10.44,3,11.45Z"/><path class="cls-6" d="M438.14,533.51h66l.37,2.45a68.59,68.59,0,0,1,.77,9.28l0,1.26c0,2.6,0,5.2-.2,7.79v.21a95.94,95.94,0,0,1-1.2,9.85h0a52.27,52.27,0,0,1-1.92,7.58l0,.14a34.69,34.69,0,0,1-1.69,4.15l-.15.3a30.36,30.36,0,0,1-3.17,5.17h0a21.91,21.91,0,0,1-2.37,2.63h0a18.3,18.3,0,0,1-2.5,2h0a34,34,0,0,1-6.61,3.37h0c-1.46.55-2.94,1-4.45,1.44l-.22.07a59,59,0,0,1-10.88,1.9h0a35.44,35.44,0,0,1-4.61.05l-4.19-.25a29.38,29.38,0,0,1-3-.3l-.78-.11a43.15,43.15,0,0,1-9.91-2.69h0a10.89,10.89,0,0,1-1.7-.87h0a41.71,41.71,0,0,1-9.44-8.08h0a25.46,25.46,0,0,1-3.24-4.67h0a63.17,63.17,0,0,1-4.38-10.1l-1.48-4.43-1-3.73a50.11,50.11,0,0,1-1.41-7.08h0a41.77,41.77,0,0,1-.32-5.12v-8.49l1,.29a7.51,7.51,0,0,1,2.11,1l1,.7a12.35,12.35,0,0,1,2.17,1.85h0a10.05,10.05,0,0,0,1.94,1.63h0a2.55,2.55,0,0,0,1.34.39h.27a1.36,1.36,0,0,0,1.22-.77h0a26,26,0,0,0,2.11-6.42Z"/><path class="cls-7" d="M471.91,496.27l-.22-1.49a31.47,31.47,0,0,0-1.21-5.23h0a8.22,8.22,0,0,0-1.45-2.68l-.41-.51a5.73,5.73,0,0,0-2.8-1.88h0a5.43,5.43,0,0,0-2.12-.21l-.5.05a9.12,9.12,0,0,0-3.69,1.2l-.89.52a13.92,13.92,0,0,0-2.62,2l-1.78,1.79L452.15,492a5.79,5.79,0,0,0-1.21,1.87h0a8.29,8.29,0,0,0-.58,2.74h0a5.22,5.22,0,0,0,.61,2.69l.19.36a16.51,16.51,0,0,0,2.55,3.54h0a15.42,15.42,0,0,0,1.59,1.44l.05,0a29.94,29.94,0,0,0,4.92,3.1h0l1.36.32a9.36,9.36,0,0,0,3.25.21h0a8.26,8.26,0,0,0,2.95-.92h0a8.41,8.41,0,0,0,3.12-2.89h0a5.94,5.94,0,0,0,.88-2.43h0A19.8,19.8,0,0,0,472,499Z"/><path class="cls-8" d="M562.22,742l46.33-6.13,13.71-5c2.67-1,5.28-2.08,7.84-3.31l3.12-1.5a25.57,25.57,0,0,1,4.64-1.71h0a25.35,25.35,0,0,1,8.27-.78h0a23.85,23.85,0,0,1,10.58,3.29h0a27.8,27.8,0,0,1,7.44,6.44l2.41,3q3,3.68,5.54,7.63l2.28,3.51a105.88,105.88,0,0,1,8.15,15l7.09,16,11.76,27.43q2.55,6,5.6,11.66l4.78,8.94,3.41,6.58q1.7,3.3,3.6,6.49l6.62,11.12,6.45,11.22a30.83,30.83,0,0,0,3.17,4.52h0a17.74,17.74,0,0,0,4.58,3.83l12.71,7.34,5.87,3a62.86,62.86,0,0,1,7.68,4.7l.7.5a25.23,25.23,0,0,1,4.93,4.64h0a28.12,28.12,0,0,1,5.2,10.07l.08.28a36.79,36.79,0,0,1,1.1,5.41l.28,2.12a28.2,28.2,0,0,1,.14,6h0a52.08,52.08,0,0,1-1.89,10.2h0A47.32,47.32,0,0,1,771.88,935L767.29,943l-2,3.23a110,110,0,0,1-12.46,16.22l-1.86,2,1.36,10.22-93.5,58.87-149.81,39L265.55,985.13,221.07,989l-14.31,4.17a27.48,27.48,0,0,0-6,2.56h0a19.41,19.41,0,0,1-6.51,2.3l-1.82.29-.93-.47q-4.12-2.07-8.06-4.52l-.14-.09a97.25,97.25,0,0,1-17.33-13.79h0a73.17,73.17,0,0,1-8.63-10.37l-8.2-12-6.89-11A111.61,111.61,0,0,1,132,925.28h0a15.6,15.6,0,0,1-.85-3.49l-.53-4.24a34.77,34.77,0,0,1,.49-11.51h0a8.94,8.94,0,0,1,.86-2.4l1.44-2.78a56.16,56.16,0,0,1,8.53-12.14l3.42-3.7c1.09-1.19,2.24-2.33,3.43-3.42l15-13.76a103.46,103.46,0,0,1,8.72-7.17l29-21.36,40.23-78.69,13.22-26.24,7.67-9.69a36.42,36.42,0,0,1,3.73-4l7-6.54a37.5,37.5,0,0,1,3.29-2.73l3.2-2.36a32.74,32.74,0,0,1,9.74-4.92h0a8.83,8.83,0,0,1,3.82-.32h0a27.26,27.26,0,0,1,9.78,3.35h0c1.23.72,2.43,1.5,3.59,2.34l6.41,4.66,6.42,3.46,51.59,6.66,128.62,10.37,60.49,7.65Z"/><path class="cls-3" d="M515.14,658.11l-4.22,2.44A52.43,52.43,0,0,1,501,665l-3,1a51.18,51.18,0,0,1-6.79,1.73l-7.5,1.39c-1.32.24-2.64.43-4,.58l-8.93,1q-1.8.2-3.6.27l-8.2.35a53.7,53.7,0,0,1-7.82-.24l-6.44-.68a55.53,55.53,0,0,1-9.4-1.81l-.61-.17c-1.68-.47-3.35-1-5-1.64l-12.26-4.64L397,700.88l16.11,46.35,20.69,20.09,14.52,8,23.28,2.78,30-39,36.61-31.63-5-30Z"/><path class="cls-9" d="M625.12,1034.11,646,1018l18.52-15.74,12.31-9.9a108.59,108.59,0,0,1,12.63-8.77l5.48-3.26a40.48,40.48,0,0,1,7.62-3.52h0a33.45,33.45,0,0,1,8.56-1.72l11.31-.74a97.63,97.63,0,0,1,10.82-.12l17.48.76,17.53,1.59,9.22,1.07a23.2,23.2,0,0,1,8.5,2.71h0l2.33,3.89a42.59,42.59,0,0,1,3.16,6.43l.81,2.09a17.06,17.06,0,0,1,1.17,5.65l.1,2.65,4.18,12.94,4.78,13.14,8.16,22.7,3.58,10.36.33.94a38.26,38.26,0,0,1,2,11.17l0,.63h0a26.9,26.9,0,0,1-1.78,9.63l-.21.53-9.36,10.15-9,8.76-6.84,6.15a97,97,0,0,1-10.37,8.11l-13,8.84-69.3,20.31-11,2q-3.13.57-6.29,1l-2.67.35a139.47,139.47,0,0,1-19.49,1.11l-5.15-.07-12.74-28.87L614.77,1061Z"/><path class="cls-10" d="M256.78,1005.94l-44.94-13-11.12,2.79-9.26,2.12-3.13-3.28a5,5,0,0,0-5.07-1.33h0l-2.67,2a105.94,105.94,0,0,1-11.57,7.39h0v2.91a62.11,62.11,0,0,1-1.45,13.32l-1.27,5.79-.08.39a73.61,73.61,0,0,1-11.38,27h0l-2,4.5a10.87,10.87,0,0,0-1,4.49h0a6.38,6.38,0,0,0,1,3.44h0a12.39,12.39,0,0,0,4.45,4.18l1,.55a72.47,72.47,0,0,1,8.4,5.48l8.36,6.31,30.76,16.59,40.41,8.75h5.44a106,106,0,0,0,19.71-1.85l1.39-.26,22.92-10L280,1040Z"/><path class="cls-11" d="M363.72,703.55h-8.8A89.67,89.67,0,0,0,338.66,705l-.83.15a74.84,74.84,0,0,0-10.1,2.6l-.78.26a66.3,66.3,0,0,0-8.24,3.38l-5.52,2.71h0a48.53,48.53,0,0,0-8.77,18.38l-1.28,5.38-5.54,22.9-6.22,21a43.75,43.75,0,0,0-1.25,5.44l-1.28,7.74q-1.05,6.3-1.49,12.68l-1.58,23-2.58,71.65-18.1,79-2.59,49.13,2.9,18.65q.42,2.78,1,5.51l3.19,14.92c.43,2,.94,4,1.52,6l1,3.41a59.76,59.76,0,0,0,7.63,16.37l1.58,2.37h-8.86v4.06l.35.42q3.33,4,7,7.71h0l-3.54,3.19A190.12,190.12,0,0,0,255,1135.74l-5.57,7a189,189,0,0,0-13.91,20L214.87,1197l-58,82.73-11.08,14.41H703.89l-38.78-70.55L638.51,1176l-23.26-38.41-9.61-17.36-1.48-6.65,6.28-1.1h0a46.25,46.25,0,0,0,7-14.55l4.42-15.74,11.45-36.94,6.72-23.14a123.93,123.93,0,0,0,4.37-22.82l2.23-23.19a119.87,119.87,0,0,0,0-22.73l-3-31.11-4.81-68.7-4.43-45.43L631.3,763a137.77,137.77,0,0,0-1.95-15.41l-2.08-11.4a18.85,18.85,0,0,0-2.14-5.86h0a39.29,39.29,0,0,0-7-9l-2-1.9a7.05,7.05,0,0,0-3.74-1.87l-8-1.33a70.72,70.72,0,0,1-10.55-2.62l-.78-.27a109.53,109.53,0,0,0-21.83-4.86l-1.4-.17-15.88-1.84,17,35.45,7,47.28,7.71,52.63q.78,5.36,1.13,10.77l3,47.41-21.13.29a98.83,98.83,0,0,0-10.16.67l-1,.11a105.39,105.39,0,0,0-19.31,4.11l-9.37,2.94-17.36,5.54-22.9.74-44.69-.74-38.79-1.1-14.4-1.11-11.82-5.17-8.06-3.18a75.25,75.25,0,0,0-8.42-2.75l-5.3-1.4c-3-.78-6-1.41-9-1.89l-16.52-2.6,5.68-62.4a120.15,120.15,0,0,1,1.94-13.23l12.7-62.14Z"/><polyline class="cls-12" points="419.91 972.29 450.27 1002.65 480.66 972.26"/><rect class="cls-13" x="447.84" y="957.72" width="5.13" height="87.9"/><rect class="cls-13" x="447.4" y="939.62" width="5.13" height="105.9" transform="translate(-542.6 1442.53) rotate(-90)"/><path class="cls-8" d="M424.79,644.29l-2.94-.11a40.28,40.28,0,0,0-11.1,1.11h0a52.71,52.71,0,0,0-8.65,2.92L399,649.55c-.88.39-1.76.81-2.61,1.25l-1.5.79a21.62,21.62,0,0,0-6,4.57l-.2.23a36.92,36.92,0,0,0-5.3,7.47l-.23.43q-1.61,3-2.93,6.16l-2.17,5.17-4,8.85-.53,1.18a47.83,47.83,0,0,1-7.74,12h0a15.46,15.46,0,0,1-2.5,2.28l-8.55,6.24-7,5.46a47.31,47.31,0,0,1-6.25,4.14h0a4.56,4.56,0,0,0-2.1,2.53l-.06.17a16.13,16.13,0,0,0-.78,6.13l.32,4.91.62,5.85c.31,2.89.75,5.77,1.34,8.62l1.26,6.09a99.81,99.81,0,0,0,3.53,12.83l5.06,14.62,4.66,12.09c.83,2.13,1.74,4.24,2.74,6.3L365,810l3.32,6.38a94.14,94.14,0,0,0,7,11.42h0q.9,1.25,1.92,2.4l.12.14a19.71,19.71,0,0,0,6.89,5l.29.13,3.28.52a6.24,6.24,0,0,0,3.49-.47l.51-.23a21.86,21.86,0,0,0,5.75-3.78l2-1.87a64.7,64.7,0,0,0,8.6-9.59l7.57-10.37c.63-.87,1.29-1.72,2-2.54l11.27-13.53a31.39,31.39,0,0,1,2.36-2.53l4.64-4.45c.37-.35.74-.68,1.13-1l3.56-3a20.84,20.84,0,0,1,5-3.08l1.71-.73a4.38,4.38,0,0,1,2.45-.3l5.17.86.62.08a54.78,54.78,0,0,1,14.81,4.09h0a43.15,43.15,0,0,1,9.69,5.82l3.43,2.73q2.56,2,5,4.26l10,9.19c.87.8,1.7,1.62,2.51,2.47l7.37,7.77c.9.94,1.76,1.92,2.58,2.92l4.93,6,2.88,3.79a27.39,27.39,0,0,0,5.13,5.13l1.19.91a11.27,11.27,0,0,0,3.37,1.75h0a19.91,19.91,0,0,0,6.68.91l2.85-.09a11.58,11.58,0,0,0,3.45-.65l.34-.12A20.69,20.69,0,0,0,548,833l.34-.27a24.53,24.53,0,0,0,5.89-6.86l3.18-5.49c1-1.73,1.94-3.49,2.84-5.28l4.86-9.73q1.85-3.68,3.4-7.5l6.05-14.81a96.28,96.28,0,0,0,4.9-15.74l1.32-6a71.23,71.23,0,0,0,1.34-8.44l.5-5.19a49.3,49.3,0,0,0,0-9l-.22-2.36a9.34,9.34,0,0,0-1.15-3.72h0a14.41,14.41,0,0,0-3.76-4.35l-2-1.58a59.4,59.4,0,0,1-7.34-6.75l0-.06q-2.48-2.7-4.69-5.59l-1.09-1.42a39.66,39.66,0,0,1-4.77-8l-.4-.91a53.14,53.14,0,0,1-3.13-9.18l-.63-2.6c-.42-1.73-.77-3.48-1-5.24l-1.08-7.23a47.47,47.47,0,0,0-1.12-5.4l-1.73-6.39a3.68,3.68,0,0,0-.85-1.53l-2.52-2.67a25.46,25.46,0,0,0-2.46-2.3l-5.22-4.3a62.35,62.35,0,0,0-5.42-4h0a40.12,40.12,0,0,0-8.84-4.35h0c-1-.34-2-.65-3-.93L514.53,646l-2.06,23.21a45.85,45.85,0,0,0-.16,4.83l.12,5a41.13,41.13,0,0,0,1.11,8.62l1.18,5c.33,1.38.71,2.73,1.16,4.07l1.25,3.77a21.81,21.81,0,0,1,1,4.65l.82,8.08-2.37,4.28a37.15,37.15,0,0,1-3.81,5.58l-8.67,10.47a39.46,39.46,0,0,1-4.46,4.59l-17.52,15.29c-.84.74-1.7,1.44-2.59,2.11l-12.17,9.19c-.48.36-.94.73-1.4,1.11l-11.12,9.35-1.06-.81a48.91,48.91,0,0,1-8.22-7.92l-6.28-7.63-7-8.67a78.64,78.64,0,0,1-7.2-10.62l-4.55-8.07q-1.68-3-3.07-6.06l-9.07-20.23,5.93-8.68,4-6.34A53.26,53.26,0,0,0,423.74,679l.83-2.38a20.34,20.34,0,0,0,1.11-7.38Z"/><path class="cls-14" d="M168.75,1093.68l10.61-20.52c1.09-2.12,2.09-4.29,3-6.5l11.18-27.84,9.6-22.87c1.06-2.51,2.22-5,3.5-7.38h0a56.71,56.71,0,0,0,4.52-11.38l1.82-6.58,6.93-31.69,3.46-32h0a62.86,62.86,0,0,0-4.13-17.52l-3.06-7.79L201,866.5l-8.46-18.57c-.76-1.65-1.46-3.32-2.12-5l-7.53-19.3-1.2-2.82A60,60,0,0,1,177,800.58l-.22-4.13-.47-6.84a9.3,9.3,0,0,0-.29-1.74l-.47-1.8a32.49,32.49,0,0,0-2.55-6.65l-.43-.82a47.53,47.53,0,0,1-2.41-5.47l-.49-1.37a10,10,0,0,1-.61-3.46h0a3.72,3.72,0,0,1,1.25-2.79h0a4.26,4.26,0,0,1,2.67-1.08l4.87-.2h4.52l2.16-8.82a48.23,48.23,0,0,1,2.82-8.21l2-4.44a78.41,78.41,0,0,1,7.62-13.32l1.72-2.42c.67-.94,1.37-1.86,2.1-2.75l1.92-2.37a13.61,13.61,0,0,1,7.21-4.58l1-.24h0a14.63,14.63,0,0,1,7.78,4l.16.17c.57.56,1.11,1.14,1.64,1.74l3.21,3.63,2.09-2.33a13,13,0,0,1,6.62-3.93h0a6.87,6.87,0,0,1,3.34,0h0a27.51,27.51,0,0,1,8.29,3.72h0a36.46,36.46,0,0,1,6.14,5.15l3.46,3.63a14.88,14.88,0,0,0,3.07,2.46h0A34.43,34.43,0,0,1,267.58,746h0a66.6,66.6,0,0,1,3.4,5.77l1.64,3.15,3.14,1.22a12.56,12.56,0,0,1,3.07,1.73l2.09,1.6a15.45,15.45,0,0,1,1.9,1.71l1.07,1.14a14.69,14.69,0,0,1,3.32,5.68l.67,2.19a31.67,31.67,0,0,1,1.08,4.7l.22,1.53a60,60,0,0,1-.56,20.83l-.82,4,.43,6.61a7.31,7.31,0,0,1-.5,3.17h0a2.61,2.61,0,0,1-3.44,1.42h0a9.62,9.62,0,0,1-4.73-4.39l-1.88-3.62-4.26-9.85.46,5.16a77.6,77.6,0,0,0,1.06,7.73l.47,2.53a22.6,22.6,0,0,0,1.22,4.19l2.91,7.26c.36.91.75,1.8,1.16,2.68l5,10.5q1.59,3.36,2.86,6.85l3.42,9.37a132.33,132.33,0,0,1,4.24,13.93h0a97.58,97.58,0,0,1,2.8,20.76l.13,4.8c.08,3.27,0,6.55-.14,9.82h0a51.86,51.86,0,0,1-1.48,9.75l-2.65,10.44a82.13,82.13,0,0,1-2.95,9.29h0a39.14,39.14,0,0,0-1.51,4.83l-5.53,22.84-5.06,31.16-5.32,24.24-9.59,22.1-8.8,21.58a88.4,88.4,0,0,0-3.92,12l-4.33,17.3-5.13,35.91c-.48,3.4-1.12,6.79-1.89,10.14l-7.09,30.66-2.25,10.46a99.15,99.15,0,0,1-4.84,16l-6.57,16.5c-.84,2.1-1.75,4.18-2.72,6.22l-4.24,8.9a88.76,88.76,0,0,1-5.13,9.32l-.71,1.14a83.42,83.42,0,0,1-13,15.86l-.16.16q-4.1,3.9-8.52,7.42l-8.62,6.87-14.65,10.65-9,6.52a22.07,22.07,0,0,1-5.21,2.77h0a10.45,10.45,0,0,1-4.67.59l-2.92-.29h0a58.79,58.79,0,0,1-7-12.58l-5-12.46-8-20.5-2.71-7.76a46.52,46.52,0,0,1-1.65-5.9l-.62-2.88a64.38,64.38,0,0,1-1.41-13.42h0a42.86,42.86,0,0,1,1.79-12.27l2.09-7a43.53,43.53,0,0,1,1.52-4.28l2.5-6.06a77.54,77.54,0,0,1,3.84-7.95l8-14.26q1.33-2.39,2.82-4.68l9-14q1.71-2.64,3.21-5.42l11-20.4Z"/><path class="cls-14" d="M744.94,1294l-8.47-22.84a156.83,156.83,0,0,1-5.81-19.33l-4-17.07-3.12-15.6a124.71,124.71,0,0,0-3.21-12.62l-5.64-18.09a138.19,138.19,0,0,0-5.4-14.47l-12.51-28.57L684.72,1113l12.13-7q1.41-.81,2.88-1.5l8.27-3.87q6.16-2.88,12.52-5.31l1.94-.74a83.61,83.61,0,0,1,12.1-3.59l2.21-.47c2.75-.6,5.52-1.08,8.31-1.46h0a107.82,107.82,0,0,1,16.75-.94l6.47.15,5.08,21.66,13.54,47.71,11.84,44.67,10.15,38.57,10.15,32.83,6.77,19.62Z"/><path class="cls-15" d="M194.09,1033.47l8.11-16,7.14-15,.9-8.54a80.94,80.94,0,0,1,1.88-10.83l.85-3.46c.37-1.51.8-3,1.28-4.46l2.22-6.66.07-.19A92.61,92.61,0,0,0,221.26,945l.09-1.23a65.35,65.35,0,0,0,.08-8l-.53-10.49h0a41.64,41.64,0,0,1,18,1l4.17,1.18,10.22-.36a113.72,113.72,0,0,1,21.26,1.25h0a39.6,39.6,0,0,1,15.88,6.15h0l-1.85,14.12-2.71,16.24L283.39,982c-.17,1.18-.37,2.36-.61,3.53L279,1004.19l-3.2,12.48a68.53,68.53,0,0,1-3.9,11.12l-5.44,12.07-7.87,16.48-9.62-8.79q-1.95-1.79-4-3.4l-1.64-1.28a35.8,35.8,0,0,0-14.26-6.73l-4.29-1a41.68,41.68,0,0,0-11.19-1l-2.62.13a79.06,79.06,0,0,1-13.41-.49Z"/><ellipse class="cls-16" cx="452.17" cy="812.52" rx="5.11" ry="5.53"/><ellipse class="cls-16" cx="451.25" cy="855.93" rx="5.11" ry="5.53"/><ellipse class="cls-16" cx="450.41" cy="897.37" rx="5.11" ry="5.53"/><path class="cls-17" d="M792.31,992.76l-2.83,5.07-3.4,6.78-6.66-4.19a38.39,38.39,0,0,0-3.42-1.93L770.93,996a44.51,44.51,0,0,0-7.59-3l-1.13-.32a36.23,36.23,0,0,0-8.83-1.4h0a24.18,24.18,0,0,0-3.51.11l-1.15.12a26.85,26.85,0,0,0-7,1.69h0a17.52,17.52,0,0,0-3.38,1.76l-2.6,1.74a30.39,30.39,0,0,0-3.5,2.69h0a19.07,19.07,0,0,0-3.64,4.32h0a7.67,7.67,0,0,0-.52,1l-.56,1.22a20.16,20.16,0,0,0-1.74,6.7l-.06.72a12.51,12.51,0,0,0,0,2.29L726,1018a10.38,10.38,0,0,0,.48,2.33l1.31,4.07a31.47,31.47,0,0,0,1.31,3.38l.72,1.56a41.79,41.79,0,0,0,2.22,4.18h0a26.8,26.8,0,0,0,4.56,5.62h0c.76.72,1.55,1.4,2.37,2.05l1.64,1.3a39.8,39.8,0,0,0,5.28,3.53h0a44.61,44.61,0,0,0,5.81,2.74l3.13,1.22c1.28.5,2.58.94,3.9,1.33l4.22,1.25a50.86,50.86,0,0,0,7.4,1.61l7.2,1,8.13,1.39c1.59.27,3.19.46,4.8.58l3.12.24a51.88,51.88,0,0,0,6.83,0l4-.25,7.83-.22.86-.1-3.62-10.45-3.72-10.25-5.23-14.48-4.42-12.76-2.52-7.87-.1-2.65-.05-1.22a9.7,9.7,0,0,0-.35-2.21l-.3-1Z"/><polygon class="cls-18" points="796.57 1015.29 791.35 1016.55 786.92 1001.69 782.65 1002.95 786.13 1016.4 786.76 1018.45 766.68 1023.2 734.42 1030.63 735.05 1034.42 787.39 1023.04 800.68 1056.41 805.74 1055.46 793.72 1022.56 798.15 1021.3 796.57 1015.29"/><polyline class="cls-19" points="448.52 43.99 468.29 63.75 488.07 43.97"/><rect class="cls-13" x="466.7" y="35.36" width="3.34" height="54.92"/><rect class="cls-13" x="466.84" y="23.87" width="3.34" height="66.64" transform="translate(411.32 525.7) rotate(-90)"/><line class="cls-20" x1="263.85" y1="194.12" x2="215.17" y2="261.14"/><line class="cls-20" x1="279.78" y1="217.26" x2="205.85" y2="244.31"/><line class="cls-20" x1="669.96" y1="186.52" x2="703.8" y2="236.55"/><line class="cls-20" x1="656.13" y1="202.41" x2="710.27" y2="221.83"/></g></g></g></svg>